<?xml version="1.0" encoding="utf-8"?>
<!-- Generator: Adobe Illustrator 26.3.1, SVG Export Plug-In . SVG Version: 6.00 Build 0)  -->
<svg version="1.1" id="Layer_1" xmlns="http://www.w3.org/2000/svg" xmlns:xlink="http://www.w3.org/1999/xlink" x="0px" y="0px"
	 viewBox="0 0 990.1 651.3" style="enable-background:new 0 0 990.1 651.3;" xml:space="preserve">
<style type="text/css">
	.st0{fill:#F4F7F9;}
	.st1{font-family:'Montserrat-Light';}
	.st2{font-size:101.9975px;}
	.st3{letter-spacing:49.9;}
	.st4{fill:#FCFCFC;}
	.st5{font-family:'BebasNeueBold';}
	.st6{font-size:255.852px;}
	.st7{fill:#DDEEF7;}
	.st8{fill:#FFFFFF;}
	.st9{fill:none;stroke:#1F1A36;stroke-width:3;stroke-miterlimit:10;}
	.st10{fill:#A9BFCA;}
	.st11{fill:#1F1A36;}
	.st12{fill:none;stroke:#DDEEF7;stroke-width:3;stroke-miterlimit:10;}
</style>
<g>
	<g>
		<text transform="matrix(0.9828 0 0 1 168.0869 582.9814)" class="st0 st1 st2 st3">BEYOND</text>
		<text transform="matrix(0.9828 0 0 1 69.999 380.8018)" class="st4 st5 st6 st3"> EARTH</text>
		<text transform="matrix(0.9828 0 0 1 493.1846 478.4658)" class="st7 st5 st2">&amp;</text>
		<g>
			<g>
				<polygon class="st8" points="134.6,184.9 623.9,66.9 637.3,157.8 140.3,213.9 				"/>
				<polygon class="st7" points="140.3,213.9 637.3,157.8 632.2,122.8 137.4,199.1 				"/>
				<polygon class="st9" points="134.6,184.9 623.9,66.9 637.3,157.8 140.3,213.9 				"/>
				<polygon class="st10" points="622.7,50.9 639.2,168.4 661.3,164 644.9,48.1 				"/>
				<line class="st9" x1="481.6" y1="101.2" x2="494.8" y2="173.9"/>
				<line class="st9" x1="267" y1="153" x2="273.5" y2="198.9"/>
				<polygon class="st10" points="165.7,167.4 110.1,181.2 116.4,223.1 173.3,219.1 				"/>
				<polygon class="st9" points="165.7,167.4 110.1,181.2 116.4,223.1 173.3,219.1 				"/>
				<g>
					<polygon class="st10" points="292.7,131.7 304.5,210.3 411.1,202.9 396.9,106 					"/>
					<ellipse class="st11" cx="347.2" cy="165.2" rx="15.9" ry="16.2"/>
					<polygon class="st9" points="292.7,131.7 304.5,210.3 411.1,202.9 396.9,106 					"/>
				</g>
				<polygon class="st9" points="622.7,50.9 639.2,168.4 661.3,164 644.9,48.1 				"/>
			</g>
			<path class="st8" d="M352.6,167.5c-1.3,3-4.7,4.4-7.7,3.1c-3-1.3-4.3-4.8-3.1-7.8c1.3-3,4.7-4.4,7.7-3.1
				C352.5,161,353.9,164.5,352.6,167.5z"/>
		</g>
	</g>
	<path class="st12" d="M588.1,556.5c3.1,4.3,22,14.9,14.5,23.4c-5.3,6.1-28.9-0.4-55.4-16c-26.6-15.6-40.6-32.4-40.8-40.5
		c-0.2-14.6,20.3-7.1,27.6-2.7"/>
</g>
</svg>
